<svg width="60" height="60" viewBox="0 0 60 60" fill="none" xmlns="http://www.w3.org/2000/svg">
<path d="M51.12 8.55C46.02 3.6 39.99 0.75 33 0V10.86L60 26.4C59.16 19.5 56.19 13.5 51.12 8.55ZM30 60C40.32 60 48.48 55.86 54.51 47.58L45.18 42L18.21 57.6C21.96 59.19 25.92 60 30 60ZM33 28.23L57.45 42.21C58.77 39.39 59.64 36.42 60 33.33L33 17.79V28.23ZM5.64 47.43C7.62 50.16 9.78 52.38 12.15 54L39.12 38.7L30 33.45L5.64 47.43ZM27.12 0C24 0.27 21 1.08 18 2.4V33.45L27.12 28.23V0ZM0 30C0 34.17 0.9 38.31 2.67 42.36L12 36.84V6C3.99 12 0 19.95 0 30Z" fill="#E3AB1B"/>
</svg>
